<svg xmlns="http://www.w3.org/2000/svg" xmlns:xlink="http://www.w3.org/1999/xlink" viewBox="0,0,256,256" width="16px" height="16px"><g fill="#fcc419" fill-rule="nonzero" stroke="none" stroke-width="1" stroke-linecap="butt" stroke-linejoin="miter" stroke-miterlimit="10" stroke-dasharray="" stroke-dashoffset="0" font-family="none" font-weight="none" font-size="none" text-anchor="none" style="mix-blend-mode: normal"><g transform="scale(5.12,5.12)"><path d="M25,4c-5.51172,0 -10,4.48828 -10,10c0,3.28906 1.63281,6.17578 4.09375,8l-4.9375,8.15625c-0.03906,-0.01172 -0.08203,-0.01953 -0.125,-0.03125c-1.03125,-0.27734 -2.10547,-0.125 -3.03125,0.40625c-1.91016,1.10547 -2.57031,3.55859 -1.46875,5.46875c0.73828,1.28125 2.08594,2 3.46875,2c0.67969,0 1.37109,-0.16797 2,-0.53125c0.92578,-0.53516 1.59766,-1.40625 1.875,-2.4375c0.27734,-1.03125 0.12891,-2.10547 -0.40625,-3.03125c-0.16797,-0.28906 -0.39844,-0.54687 -0.625,-0.78125l5.4375,-8.9375l0.53125,-0.875l-0.875,-0.5c-2.35547,-1.39062 -3.9375,-3.96484 -3.9375,-6.90625c0,-4.42969 3.57031,-8 8,-8c4.42969,0 8,3.57031 8,8c0,0.82422 -0.11328,1.59766 -0.34375,2.34375l1.90625,0.59375c0.28906,-0.93359 0.4375,-1.91406 0.4375,-2.9375c0,-5.51172 -4.48828,-10 -10,-10zM25,10c-2.20703,0 -4,1.79297 -4,4c0,2.20703 1.79297,4 4,4c0.33203,0 0.66016,-0.04687 0.96875,-0.125l4.8125,8.71875l0.46875,0.875l0.90625,-0.46875c1.14453,-0.63281 2.44141,-1 3.84375,-1c4.42969,0 8,3.57031 8,8c0,4.42969 -3.57031,8 -8,8c-2.16016,0 -4.12109,-0.86328 -5.5625,-2.25l-1.375,1.4375c1.79688,1.73047 4.25,2.8125 6.9375,2.8125c5.51172,0 10,-4.48828 10,-10c0,-5.51172 -4.48828,-10 -10,-10c-1.38672,0 -2.67187,0.36328 -3.875,0.875l-4.40625,-7.96875c0.78125,-0.73047 1.28125,-1.75391 1.28125,-2.90625c0,-2.20703 -1.79297,-4 -4,-4zM10.5625,24.28125c-4.35547,1.08594 -7.5625,5.04297 -7.5625,9.71875c0,5.51172 4.48828,10 10,10c5.15625,0 9.28516,-3.98047 9.8125,-9h9.34375c0.44531,1.72266 1.98438,3 3.84375,3c2.20703,0 4,-1.79297 4,-4c0,-2.20703 -1.79297,-4 -4,-4c-1.85937,0 -3.39844,1.27734 -3.84375,3h-11.15625v1c0,4.42969 -3.57031,8 -8,8c-4.42969,0 -8,-3.57031 -8,-8c0,-3.75781 2.58594,-6.88281 6.0625,-7.75z"></path></g></g></svg>